<?xml version="1.0" encoding="UTF-8"?> <svg xmlns:rdf="http://www.w3.org/1999/02/22-rdf-syntax-ns#" xmlns="http://www.w3.org/2000/svg" xmlns:cc="http://web.resource.org/cc/" xmlns:xlink="http://www.w3.org/1999/xlink" xmlns:dc="http://purl.org/dc/elements/1.1/" xmlns:svg="http://www.w3.org/2000/svg" xmlns:inkscape="http://www.inkscape.org/namespaces/inkscape" xmlns:sodipodi="http://sodipodi.sourceforge.net/DTD/sodipodi-0.dtd" xmlns:ns1="http://sozi.baierouge.fr" viewBox="0 0 1324 1324"><path d="m0 0v1324h223v-5c3.24-0.5 8.65-0.9 7 4v1h147l-1-4h-4v-1l4-5h5l-2 10h122c1.24-16.8 13.35-13.1 25-13l2 13h796v-1324h-1324z" fill="#f9fff3"></path><path d="m833 192l-4 4v1c3.98-0.83 9.27-5.02 12-1l3-4 7 3 12-3c2.18 3.2 4.24 3.56 8 3l-2-4 3-3c3.69-0.12 5.78-0.31 7-4h-1v2h-1l-1-8 11 3h1l1-3 5 2v-1l-3-3c4.12 0 10.81-1.24 10 2l11-3c1.8 5.58 11.73 10.31 13 2h1l2 2v-4l3 1 1-4 6 1-3-1v-1c12.64-6.17 30.51-4.74 45-2v1l-3 1 3 4 7-1-1-6h3l2 8 1-6 5-2 11 6c2.9-4.4 6.8-2 11-1l1 5 10-4c0.5 2.44 3.8 9.85 5 4h1l10 2.5 21.9 2.9 12.1 3.6-1 5 13-1v3h6v-1l-18-6-1-5-42-6 1-4-32-3c-1.6-4.59-5.1-3.38-9-2-3.2-4.99-13.8-5.94-19-4l-19-2c-2.01 3.44-5.57 0.5-9 0.13-8.83-0.95-14.8 3.66-23 3.87-24.18 0.65-46.36 11.81-68.87 18.8-8.1 2.52-16.37 9.34-25.13 8.2z" fill="#fac4a4"></path><path d="m935 171v1l3 1-6-1-1 4-3-1v4l-2-2h-1l-2 2c-4.29 4.11-8.42 0.16-11-4l-11 3-10-2 3 3v1c-3-0.74-5.28-2.72-6 1h-1l-11-3 1 8h1v-2h1l-7 4-3 3 2 4-8-3-12 3-7-3-3 4c-1.1-5.11-11.14-0.18-14.31 2.11-5.69 4.14-9.96 3.54-16.47 6.11-4.08 1.61-7.3 5.09-11.22 6.45-6.83 2.36-17.32 3.29-19 12.33l-30 15c-1.59 5.03-6.4 5.53-11 7l1 3c-7.96 1.82-31.4 10.99-29 21h-8l-16 18 3-2 1 3 4-4h6l-2-4v-1l10-6 4 3-2-3 5-1-2-3 7-1 3-4c0.61 2.85 1.3 2.85 4 2l-1-3h7l-2-3v-1h9v-3c6.65 0.49 13 1.49 17-5 6.13 1.12 12.48-1.34 13-8h1c3.87 4.09 4.54-5.56 5-8l5 5 1-4c3.07-1.02 5.76-2.06 5 1l12-3 1-8 18-5-2-7v-4l6 1-1 3 3-2 1 4h1v-4l5 4c4.04-2.3 6.37-1.79 10 1l1-11 4 5h1l-1-6 2 3h1c1.19-5.02 3.69-7.68 9-7l1-5h1l3 9 4-3v3l26 2v-4c10.04 3.58 19.08 1.6 20-10l9-3-1 3h5l4-3 1-7 9 1-3-5h19l-2-7h1v3h1v-4l6 1v1l-4 1 11 6-1-5 7-6c-10.88-3.31-32.04-5.44-41 2z" fill="#f96c80"></path><path d="m975 168c-0.12 4.15-2.44 5.36-6 7l1 5-11-6 4-1v-1l-6-1v4h-1v-3h-1l2 7h-19l3 5-9-1-1 7-4 3h-5l1-3-9 3c-1.54 11.89-9.92 12.36-20 10v4l-2-3-24 1v-3l-4 3-3-9h-1l-1 5c-5.52-1.35-8.27 1.64-9 7h-1l-2-3 1 6h-1l-4-5-1 11c-3.32-3.59-6.06-3.97-10-1l-5-4v4h-1l-1-4-3 2 1-3-6-1v4l2 7-18 5-1 8-2-2-10 5c-0.44-2.68-2.72-1.72-5-1l-1 4-5-5c-0.74 3.06-0.73 9.72-5 8h-1c-1.02 6.43-7.02 8.4-13 8-5.1 5.59-9.93 5.16-17 5v3h-9v1l2 3h-7l1 3-4-2-3 4-7 1 2 3-5 1 2 3-4-3-10 6v1l2 4h-6c-0.89 2.74-4.48 5.07-5 1-5.39 3.91-8.58 6.26-10 13h-5l2 5-5-1c0.61 8.08-4.68 4.76-9.12 8.6-5.39 4.66-19.54 23.46-23.88 5.4-5.05-2.7-10.65-7.27-12-13l-13-6-6-9-11-2v-3l-19-9-4 3 1-5-3-4-18-9c-2.68 5.59-7.1 3.88-12 2v3h-1l-1-3-11 2 1-5-11-3c-2.22 4.06-3.87 5.27-2 10l-3-5-4-1v4l-7 2 1-9-6 1-4-5 6-1-4-5h-4l1-3-12-1-1 4 2 10-5-3h-1v6h-2v-5l-7 1c1.24-2.97 2.9-6.15-1-7l3-3v-1c-6.03-0.67-19.09-17.34-20-6h-3v-4h1v2h1c-0.65-3.05-2.01-2.94-5-3l-4 16h-5c-0.2-1.81-0.73-4.93-2-2h-1l1-7-10-2 4-11-9-3-5 2c-1.69 6.18-8.29 4.06-13 3v-1c4.24-0.74 4.78-2.95 5-7h-6l1 6-1 4c-2.61 0.75-13.94 12.86-10 3v-1l-4-5 4 2 1-3-3-3-1 3h-1l1-6-7 1-2-4 2-1-1-1h-4l-4 2v9l6 7h-5l1-4-6-1 1 4-3-1v3l-3-1 2 6-2 3c-10.18-2.98-20.94 4.84-21-11h-1l-1 5h-6v1l3 2h-8v-6c-4.24 1.64-8.53 2.34-10 7l-11-6v-1l2-3-4 2-3-7h-1l-2 6h-4l2 5-2-2-4 4-3-14h-5v-1l7-1v-2l-22 9v-3h-2l1 9-2 1-4-2 4-12 8-1v-1h-9l1-6h-1l-7 5-11-2-4 1v6l-8 2-1-2v-1h3v-1l-2-2-10-2c-3.28 5.95-15.7 4.24-22 5v3l-50 13-8 8v1h3l2 9-3 3-12 2v-1l3-1-5-2-3 3v12l-2-1v1l1 4-3-7-4 5-4-3-1 4c-12.87-1.97-12.52 6.14-13 17l-17 9 1-3-6 10-6-2c-4.455 8.11-13.844 16.89-12 27-6.168 3.6-4 13.74-4 20 0 14.95-4.334 38.35 16 41l1 6h5v4c-5.187 2.72-3.7 8.86-4 14l2-3c3.514 3.39 3.315 6.36 3 11h2v-5h1l2 1c0.588 3.4 1.649 4.27 5 5l-3 13h-4l4 10 2-1v5h-6c7.17 4.43 7.116 4.85 5 13l5 4-6-1 1 3-3 1 8 2v2l-7 2 1 6 6-1v4h1l1-3h1l-2 7h4l-3 4h4l-2 3 4 1v2l-7 6 1 4h-5l-6 15h4v1c-3.543 1.68-4.688 3.07-5 7h-1l-2-3h-1l-3 8 9 2 4-4 8-1 1 4h-1l-3-2 1 9v2l1 7h5l3-4v6l-4 1 1 5c-15.659-4.17-12.849 21.1 2 16l-2 10h5l-1 3c4.76 0-1.25 6.88-2 9h4l-1 6-7-1c-0.586 4.61-0.828 8.44-5 11v2l3 2h-3l-2 5 9 9-1-3 6-1-1 6 3-1-1 4 5-1h1l3 3-2 2 1 3-9 5 1 5 11 3c0.29 3.81 0.91 6.07 5 6l-3 5h4l1-6c4.33 5.08 0.8 16.71 0 23l4-1-4 3v1h5l-2 4 3 3 14-1-2 16 4-2-3 4 3 9-4-1 4 3-2 3 1 3 6-2 1 12h-3v1l7 4v17h4l6 13 2-1v4h4l11 20 10 18h3c0.21 2.89 3.74 9.74 5 4h1c0.51 4.61 2.38 12.47 7 14v5l4-2 3 3 8 22h1l5-1c0.54 7.19 5.7 17.92 13 20l1 7c3.85 0.42 5.04 2.38 6 6 4.14 1.08 6.73 2.84 8 7 6.82 0.19 8.56 7.12 10 13l11 8c0.3 3.86 1.09 5.35 5 6l5 9h4c1.94 8.09 12.75 17.08 21 18 0.65 13.96 18.05 15.15 22 26l4-1 1 6c10.64 3.87 13.68 15.4 27 17l2 8h4l3 4-1 4c6.75 0.4 11.21 5 14 11h4v4c6.26 2.2 15.6 7.2 17 14l5-1 4 10c12.88 2.4 18.54 12.1 27.38 19.8 5.06 4.4 12.65 6.7 12.62 14.2l10 2c-0.73 3.9 0.17 5.8 4 7l-1 3c6.65 0.2 20.01 6.4 22 13h4v3l14 7-1 2h4c1.17 6.7 8.64 5.1 13.56 8 9.29 5.4 16.28 13.2 24.94 18.7 4.03 2.5 7.87 0.5 10.5 5.3l12 2v1c-2.05 2.5 1.14 5.5 3.43 7.3 5.69 4.3 13.95 5.9 17.57 12.7l9.33 7 17.67 4 2 7c17.36 1.4 44.84-0.4 46-23l4 1 10-14 17-4c2.22-6.5 10.76-13.7 17.12-16.4 3.75-1.6 7.24-1.1 9.88-4.6l3 2 42-12v-6c7.86-0.4 12.57-16.4 6-21l9-15h7c0.93-10.3 17.83-27.7 28-29l5-9 12-6 1-7h4v-5h1v3l18-8-1-4 9-1 1-8c4.59-0.5 24.43-10.6 25-15 10.92-0.5 12.26-11.32 21-16l-2-2v-1c8.5-0.1 26.56-12.34 28-21l5 1 4-6c0.49-6.57 4.68-11.34 11-13l-1-3h2l-1-3h3l17-11c0.25-4.6 1.19-7.22 6-8v-4c4.75-0.98 8.9-1.87 10-7 9.3-0.79 11.1-11.74 16.7-17.26 3.4-3.37 8.9-4.62 11.3-8.74l-6-2 22-10c3-14.88 25.4-20.2 30-35l8-1 1-7c3.9-0.3 5.4-1.09 6-5l14-12v-5l5-3h-3l9-5 3-15 9-1v-7c3.4-1.14 3.8-2.57 3-6h2l-1-3 1-1 4 1 11-20 6-2v-1c-2.4-3.34-1.5-5.98 2-8v-4l4-1v-1l-7-2 8-6v4h1c2.7-6 3.1-10.92 10-13l-1-8 5 1h1l3-1v-3h1l4 1v-5l-5-3 2 2h1v-5l3 1c-1.3-9.16 11-10.73 14.7-17.26 2.3-4.16 1.3-12.76 2.3-17.74l3 1 8.7-8.13 1.3-18.87-1-2 4-1 1-6 7 1-2-6h3l-1-10 3-1 1-9v-2l-2-2 6 1v-1h-3v-4l11-3-4-3 4-14 4 1-5-25 3-5 9-3 1 10h2l1-11h1l1 3h1v-11h-4l2-2-1-3h4l-3-10 4-4-3-3c6.5-1.85 4.6-8.5 4.9-14 1-13.76 1.1-27.18 1.1-41h-1l-1 4h-1v-12c3.4-0.73 3-2.81 3-6l-4 1c6-10.3 3-24.32 3-36h-3v-5l2 1-7-46-3 2-1-12-2-3-7 2c0.7-4.55 2.6-27.82-6-22l-4-12h3l-1-7 1-5-9-2 2-2-2-13h-1l-1 3-4-7h-4l1-4-4-7-11 2-6 1-8-3v-1l3-6h-3l-3-6 3-3h-7v-3l-3 1c-2.6-3.74-7.5-5.43-12-5v-2l-4 1-8-10-10-3h-1l-1 3-4-7h-7l-2-3 3-11-2-1h-1l-11 10-11 1v-1c5.1-1.45 5-5.27 5-10l-8 3h-1v-9l-8-1v5l-11 2c-1.5-2.76-4.9-2.81-2-6l-3-1-3-6c-4.6 2.89-12.3 6.36-12-2h-1l-6 4v-4l4 1c-2.4-2.79-5-1.75-7 1l-9-5c-0.8-3.54-3.7-3.38-7-4v1l4 3-7 1-1-3h-4l2-3c-5.2-0.35-10.1 2.4-12-4l-4 5h-1v-5c-3.9 1.6-5.8 1.93-9-1l-2 1-1-3h-5c-2.8 3.5-5.26-1.48-7-4h-1l-1 4-8-1 3-1-1-2h3l-2-8h-3l1 6-7 1-3-4 3-1-5-2z" fill="#f84648"></path><path d="m997 168l-5 2 2 2-6 4-2 3 8 1 1-4h1c1.16 2.69 5.6 10.32 7 4h5l1 3 2-1c2.6 3.6 5.4 2.94 9 1v5h1l4-5c1.2 6.93 6.8 3.94 12 4l-2 3h4l1 3 7-1-4-3v-1l7 4 9 5c2.6-2.38 4.1-3.12 7-1l-4-1v4l6-4h1c-1.5 8.67 7.8 5.53 12 2l6 7-3 1 5 5 11-2v-5l8 1v9h1l8-3c0 4.72-0.4 7.9-5 10v1l11-1 11-10 3 1-3 11 2 3h7l4 7 1-3h1v3h10l8 10 4-1v2l12 5 3-1v3h7l-3 3 3 1v5h3l-3 6v1l8 3 2-2 4 1 11-2v-1h-3l-2-11-14-1c-0.5-5.39-2.1-11-8-12v-5c-4.9-0.19-9.4-0.44-12-5-3.3 0-10-1.42-12-4-1.3-1.7-0.3-4.52-3-6-3.3-1.78-10.3 3.26-9-2-4.5-0.34-6.3-1.86-8-6h-4c-1.1-3.49-2.4-4.43-6-5l-8-9h-2l-10 1c-2-6.9-15.9-8.17-22-9v1l3 1v1h-6v-3l-13 1 1-5c-4-0.61-7.3-3.02-11.2-3.71-9.6-1.7-24.5 0.49-32.8-5.29h-1l-1 3-4-7-10 4-1-5c-3.6-1.19-9.8-4.49-11 1l-11-6z" fill="#f96c80"></path><path d="m1098 191l7 3v-1l-2-3-5 1m7 1v1l12 7 3-5-15-3m-813 11l-26 3v1l26-2 2-4 1 5h1c5.78-5.48 18.34-4.96 26-5 22.3-0.11 44.58 2.1 67 3-2.82-6.37-17.52-3.99-24-3.29-21.25 2.31-43.59-5.81-65-0.71-2.55-3.28-7.03-0.34-8 3m531-5v3l-10 1v1l14-4-4-1m308 1l6 9 6 5h4c1.2 4.7 3.3 5.84 8 6l7.9 3.02 16.1 8.98v-2l-9-2v-4c-11.6-6.03-29.5-12.32-36-25l-3 1z" fill="#fac4a4"></path><path d="m293 201l-1 4c-9.22-0.82-19.53 1.83-29 2-3.71 0.07-5.79 0.37-7 4l-19 3-8 5-5-1c0.85 3.99 4.49 3 8 3l2 2v1h-3v1l1 2 8-2v-1l-2-1 2-4 4-1 11 2 7-5h1l-1 6h9v1l-8 1-4 12 4 2 2-1-1-9 2 3 22-9v2l-7 1v1h5l3 14 6-2-2-5h4l2-6h1l3 7 4-2-2 3v1l11 6 10-7v6h8l-3-2v-1h6l1-5h1c0.01 16.12 10.11 8.5 21 11l2-3-2-6 3 1v-3l3 1-1-4 6 1-1 4h5l-6-7v-9l4-2 5 1-2 1v1l2 3 7-1-1 6h1l1-3 3 3v1l-1 2-4-2 4 5v1c-1.1 1.52-2.36 6.46 1.49 5 3.38-1.3 4.79-6.27 8.51-8l1-4-1-6h6c-0.43 3.83-1.23 5.81-5 7v1c4.7 1.66 11.78 3.46 13-3l5-2 9 3-2 2-2 9 10 2-1 7h1l1-2 1 4h5l4-16 5 3h-1v-2h-1v4h3c1.59-10.19 13.39 5.64 20 6v1l-3 3 1 7 7-1v5h2v-6h1v3h5c0-3.58 2.1-9.1-2-10l1-4 12 1-1 3h4l4 5-6 1 4 5 6-1-1 9 7-2v-4l4 1c0.06 2.99-0.05 4.35 3 5l2-10 11 3-1 5c4.45-1.61 8.22-2.57 12 1l1-3c4.22 2.2 9.26 3.72 12-1l-20.71-4.73-18.29-6.27c-3.72-11.37-19.02-3.3-24-12l-11-2-3-6-8 1c-3.04-3.79-9.32-4.86-14-5l1-2-15-1v3h-6v-1h5l1-5c-7.88-2.3-13.64-4.98-22-3v-4c-8.14-2.07-15.71-6.9-24.02-8.33-11.32-1.95-23.58 0.45-34.98-0.05-10.93-0.48-21.95-2.62-33-2.62-7.78 0-26.08-1.85-31 5h-1l-2-5z" fill="#f96c80"></path><path d="m400 205v2l19 5v4l13-1v-2l-32-8m-154 3c1.63 4.9 5.68 3.34 10 3v-3h-10m550 2v1l6-1h-6m-619 18v3l-22 6-3 2v1l48-13v-3l29-5 8-5 8-2c-7.2-3-19.23 3.2-26.04 5.87-5.81 2.28-12.66 1.99-18.68 3.59-7.66 2.04-15.29 6.12-23.28 6.54m255-13v1l9 3-1 5h-5v1h6v-3l15 1-1 2 14 5 8-1 3 6 11 2c2.83 8.57 18.83 2.5 24 12 7.44-0.28 11.52 4.76 18.29 6.54 12.71 3.34 37.11 3.28 43.71 17.46h6l5 8 9 2v3l11 2 6 9 13 6c0.78 5.76 6.57 11.21 12 13 0.9 6.62 5.05 7.24 11 8l-9-4-2-11-9-2v-6l-3 1c-0.42-6-3.42-6.94-9-7v-4l-4-4-16-5v-4l-10-1v-5l-10-2v-4l-12-3v-4c-6.62-0.89-14.56-1.65-18-8l-18 1c-1.52-4.87-5.24-5.86-10-6l-1-5-40-12 1-3-26-5v-4l-22-2z" fill="#fac4a4"></path><path d="m221 219l-7 3v1c3.15-0.04 7.95 0.24 7-4z" fill="#f96c80"></path><path d="m722 256l18-8-1-3c4.76-1.09 10.06-1.56 11-7l19-10-26.46 13.9-20.54 14.1z" fill="#fac4a4"></path><path d="m966 233l-31-4-9 4h-1l-1-2-1 4h-8l-8-1-4 2 2 3-3 1-1-3-5 7 4-1v1l-6 2 1-7h-1l-10 10-16 1 1-6-6 8-1 4-4-1c-4.39 7.56-6.23 5.34-5 15h-2l-1-5-1 3h-1l-1-4-3 5 5 4-12-2 3 2-8 10-1-3h-1v3h-1l-2-4-5 5-5-6h-1v5l-22-3-1 5-3-1v4h-1l-3-3v3h-1c-6.54-2.13-6.47 4.43-7 9h4v1l-2 2c1.59 2.8-0.55 4.6-3 6v4h1l1-2c1.54 7.96 1.94 15.32-1 23l3-1c0 5.68 11.35 12.41 7 18-1.99 2.56-5.92 2.62-8 5-1.79 2.04 1.07 2.77-2 2l-1 7-2-2-16 11 2 2v2l-3 9c-10.54 0.74-10.07 8.81-10 17h-4c-1.13 6.34-2.62 10.79-10 9-3.28 4.07-8.99 4.09-14 4l-1 7-12 3v9h6l1-4h5l-4 3c3.12 3.04 3.44 4.94 2 9l-6-1 2 16-4-2h-1l1 10c-3.96 1.84-5.5 3.63-6 8h4l1 4-8 6c-1.06 3.49-2.42 4.43-6 5v1l3 2c-8.03 1.34-9.64 17.33-11 24-3.69 0.28-9.34 6.94-4 8v1l-3 2h-2v-2h-2v2l-3-1-14 6 1-3-5 1-8-12-8-3h-1l-4 2 1-3-5-4h-1l-3 2 1-5-9-1-4-5v5h-2c-0.15-6.08-1.67-8.79-8-9l-4-19c-13.53 10.3 6.81 26.54 9 35l15 6-3 2v1l2 7 8 3 3-1c5.03 7.74 22.44 10.3 30.83 7.44 5.42-1.84 9.07-5.59 15.17-5.44 2.61-3.62 9.7-3.95 14-4v-4l12-7c0.67-5.12 3.38-10.54 8-13 0.03-7.64 5.15-24.31 10.01-30.34 6.49-8.03 19.34-17.98 15.99-29.66 6.2-1.08 7.84-9.48 8-15l7-5 2-4v-8c5.39-0.89 6.21-5.37 8-10l-3-1v-1h6l6-7c1.07-7.01 8.34-12.55 15-14l3-3 14-24 13-5 4-6 3-9 9-3 8-7 2 2h1l6-10 4-2 10-1c2.94-5.78 13.29-10.08 19-13v-5l4-4 5 3 5-2c13.85 5.87 26.17-3.58 40-4.67 5.8-0.47 14.61 2.66 16-5.33 8.98-0.94 17.97-2.34 27-2.69 3.71-0.15 7.97 2.48 9-2.31h1c3.19 4.93 12.6 3.62 18 4.29 13.1 1.63 26 3.55 39 4.86 6.9 0.69 9.8 3.75 17 1.85v4h5c1.1 4.23 3.8 7.66 8 9v4c4 0.64 5.4 2.01 6 6h7l12 15c5.5 1.45 7.6 4.64 9 10 3.2 0.23 14.8 1.4 8 6l1 6h8l-3 2 6 16 4 3 3-2h1l-1 4 8 2v1c-5.6 4.12 0.1 8.34 5 9v1l-2 1v1l3 7c-4.8 4.2 0.3 10.45 2 15 6.2 1.87 4.2 7.58 7.2 12.26 6.2 9.77 3.8 24.53 5 35.74 0.6 6.79 3.3 13.18 3.8 20l3-1 1 19-2 2 1 5c-6.9 2.74-8.9 13.32-9 20h-3l-1 17h-3c-4.7 16.81-18.2 29.53-19 48h9l-1 6-15 7h5l-4 3c-8 14.68-26 17.17-27 37h4l1 5h-4l3 3-4 2-2-5h-2c-1.1 1.89-2.8 4.08 0 4-2 5.17-4.5 6.84-10 7l-14 29h-3l-6 5-5 18-5-2-14 18-5 3c-3.6 6.46-10.9 11.76-9 20l-5-1 4 3v1l-6-1c-1 2.16-1.2 2.5-3 1h-1c-1.3 8.82-10.1 16.71-18 20-1.1 8.76-6.32 7.39-10.84 12.6-3.36 3.87-4.38 8.61-9.16 11.4l1 7h-4v3c-7.32 0.09-8.28 3.78-12.71 8.8-7.69 8.7-22.51 18.62-25.29 30.2l7-2 8 1v-4l5-1c4.24 4.8 10.29-3.78 13.98-5.58 2.49-1.22 6-0.15 7.68-2.93 1.54-2.54 0.66-6.72 0.34-9.49l6-1c-1.23 4.93 0.14 8.23 5 10l-2-7-2 1 5-5-2-2v-1c3.28-1.31 5.68-5 1-6v-1c4.88-0.23 8.4 0.94 11-4l-4 1 1-11c7.3 4.21 12.2 1.72 20 2l-5-5h1l1 2 4-1c2.1-5.22 5.3-7.82 11-8l1-12 4-7h1l1 5h1l2-6 17-5-1-8v-2l2-2h1l1 3 7-2 1-14c3.3-0.44 10.5-1.35 12.7-3.89 2.1-2.42 2.1-5.75 4.8-7.89 4.3-3.38 11.4-3.1 8.5-10.22h6l-2-3 7-1-4-6h1l6 3v-1l-2-1 9-12-1-3 12-9v-8l3-3h5l2-12 2 2 10-2v-1l-2-3 6 1 2-9 5 2 3-6-4 3h-2l-3-14 4-4c4.5-0.23 5.3-4.01 6-8l3 4h1l8-2v-6h1v2h1c0.8-6.22 1.6-10.32-5-13v5h-2l-3-12 5 6 4-3c-5.7-3.54-0.5-6.69 1.3-11.04 3.3-8.33 7.4-16.94 7.7-25.96l7 1v-5h1l3 3-1-3 2 1v-1l-1-5-1 3h-1l1-5v-12l-2-2 11-8v-1h-9v-1l2-1-6-5v-1l7-10-3-1 9-4-1-12 3 3 5-2v-1l-2-1 3-2v-1h-7l-1 3-5-3v-2l3-1-9-3v-6l2-5 3 3h1l2-7-5-2v-6h-1l-1 3-3-3v6l-4-3 3-9h5c0-3.99 0.6-7.67-3-10 1.1-6.16-0.7-9.49-7-11l3-8h-5l4-26-8-5h5l-3-4h8c-0.4-4.56-1.4-7.61-6-9v-1h3c-2.8-3.9-12.2 0-17 0l1 3-6-1 1-8h1v3h1l4-14h1l1 4h1l3-11c-4.3-0.85-5.4-1.9-9 1l-6-2v-1l10-4-16 4 5-9-2 2h-1l-8-6 5 1v-1l-4-3h12l-3 6 4 1v-6c12.8-4.45 10.3-15.73-2-7l1-3-7 2-2-5-4 2-3-2 3-10 2 3h4l-3-6 3-1-2-10-10 2v-1l2-1-11-13v-1l-7-1-1-6h-7l4-6c-6.1-2.82-13.5 6.19-15-3l-14-1v-1l3-2-9-4-11 1v-4h-9l-3-6h-1l-1 2-4-6-11-1v-5h-10l-7 2h-1l-3-5h-1l-1 4h-1v-3h-4l-3 3v-4l-2 2c-5.1-1.22-7.9 1.24-12 4l1 5-3-4h-6l2-4h-3v4h-2v-7h-4l2 2v1h-4v-4l-12-5-5 3 1-4c-4.6-1.32-7.12-0.5-9 4z" fill="#f96c80"></path><path d="m1179 231l5 5c0.6-4.02-1.2-4.7-5-5m12 6v4c5.4 1.66 7.1 6.81 8 12l6-3-2 1 1-3-13-11m-1073 24v1l16-7c1.98-5.56 5.82-6.32 11-8-10.45-4.25-18.74 11-27 14z" fill="#fac4a4"></path><path d="m134 255c-17.81 0.21-25.54 23.42-41 28l-12 8c-0.726 5.45-3.678 11.07-9 13l-2 7 3-3 6 2 6-10-1 3 17-9c1.22-10.64 0.18-18.02 13-17l1-4 4 3 4-5 3 7-1-5 2 1v-12l3-3 5 2-3 1v1l12-2 3-3-2-9c-5.68-0.99-9.7-0.16-11 6z" fill="#f96c80"></path><path d="m1213 255l2 10h3l13 21 3-1c-0.9 3.99 0.1 5.8 4 7l-2-11-7-5 1-4h-4c-0.5-5.57-2.4-7.69-8-8l-3-9h-2m-509 13v1h7l-1-4-6 3m-593-1l-2 3 2-3z" fill="#fac4a4"></path><path d="m570 267v1l1 2 4 2-1 5 4-3 10 6-5-7h-6c-1.12-3.9-3-5.42-7-6z" fill="#f96c80"></path><path d="m698 275l5-5-5 5m-593-4l-6 6v1c3.37-1.01 6.84-3.14 6-7z" fill="#fac4a4"></path><path d="m1222 273l-1 4h4c0.1 3.71 0.4 5.56 4 7 2.6-6.92-2.8-6.85-7-11z" fill="#f96c80"></path><path d="m990 274l-10 2.32-26 2.68v4l63-3v-1c-8.2-0.35-20.18-0.07-27-5m-893 4l-4 4v1l6-5h-2z" fill="#fac4a4"></path><path d="m880 301l-10 5-15.96 10.78-28.84 20.75-7.2 8.47c-10.42 1.65-25.63 18.68-27 29l-3 3c-6.27 0.96-7.98 6.05-11.21 10.84-4.99 7.42-13.3 22.6-20.79 27.16-0.86 5.4-4.2 9.44-9 12 0 6.61-0.64 13.08-8 15 1.49 7.08-3.7 19.42-10 23-1.74 6.7-6.45 11.9-9.12 18.17-5.74 13.53-8.75 28.38-20.02 39.22-4.54 4.37-11.13 4.84-16.86 6.72-14.68 4.83-26.52 9.84-41.46 3.64-8.69-3.6-20.32-1.17-24.54-11.75h-6c-0.39-4.95-13.2-21.09-18-22v-14l2 1c0-13.56-1.1-27.49 0.17-41 0.56-5.94 2.65-17.17-0.45-22.52-2.38-4.1-7.88-2.86-10.96-5.99-4.8-4.9-6.25-9.13-13.76-10.49v-7l-25-14v-6l-17-8v-4c-7.15-0.39-9.23-5.92-15.29-8.66-13.75-6.21-26.37-13.72-41.71-15.34v-4l-43-11c-5.1-7.17-18.21-6-26-6v-4l-56-1.92-21-0.08-31 4v1h2v1c-13.66 0.04-27.06 1.54-40.28 5.29-4.96 1.41-10.72-0.13-12.72 5.71-7.9-1.49-11.35 3.41-18.22 6.42-16.92 7.41-32.8 15.57-33.78 36.58-0.26 5.49-7.24 27.45 0 29l1 51c7.85 7.35 7.78 22.38 10.5 33 5.37 20.96 11.14 42.43 19.5 63h1v-2h1c0.08 8.76 5.19 14.42 8.58 22.04 2.94 6.59 4.38 14.12 7.29 20.96 2.11 5 3.12 11 9.13 12v6l4-1 4 21 2-1v7h1l12 12-1 9h5l3 9-2-1c1.85 6 7.4 14.79 13 18-1.25 7.7 2.99 18.46 11 21v4l4-2c0.06 7.24 4.49 18.66 12 21l-1 6c6.24 6.24 16.97 21.39 19 30h3l1 9 14 16c0.65 5.16 2.82 9.44 8 11l9 17h4l9 21c8.06 0.26 16.42 12.07 17 20l9 3c0.09 7.91 7.84 20.34 16 22v5c4.12 1.64 6.1 3.63 7 8 3.1 0.95 3.87 1.75 4 5 12.43 0.94 20.14 20.57 32 24 0.68 5.91 4.83 6.01 8.14 10.17 7 8.77 21.48 26.79 32.86 27.83 0.83 3.05 3.75 8.26 7 5h2l9 11 13 6 3 3v5l4 4h8c2.07 7.2 16.42 18.7 24 18v5l9 1c0.16 4.7 1.22 6.4 6 7 2.1 6.8 12.31 13 19 13v5l13 4v5c5.14 0.3 7.59 1.7 8 7 7.46 1.6 12.48 4.8 17 11l8-2v-4l10-3v-4c5.42-1.2 6.63-4.8 6-10l10 1v-3c6.2-1 20.36-10.5 22-17 10.64-1.2 20.9-11 28.02-18 2.99-3 6.62-3.8 7.98-8 5.01-0.1 8.14-0.6 9-6 10.85-1.57 13.05-15.16 26-16 6.09-12.49 22.66-22.08 33.58-30.21 4.56-3.4 8.91-8.22 14.42-9.79 2.88-6.43 10.86-12.79 17-16 1.78-7.42 10.98-12.23 18-14 0.57-3.58 1.51-4.94 5-6l25-27h4v-3h4c7.32-14.68 33.7-23.04 35-40l8-2c2.06-12.93 17.79-16.51 21-29 5.45-0.8 7.74-5.56 11.33-9.33 7.83-8.21 21.81-17.99 23.67-29.67h4l12-16c4.7-1.47 9.7-9.31 11-14l9-7-1-4c8.1 0.65 11.7-8.27 15.8-13.76 6.5-8.46 13.9-16.69 20-25.6 3.2-4.78 7.4-12.72 12.2-15.64 0.5-9.11 8.8-16.6 14.1-23.36 8.5-10.82 13.4-23.65 22.2-34.18 4-4.78 2.6-11.26 9.7-13.46 0.6-4.52 1.9-8.66 6-11 3-13.24 11.8-23.37 15.8-36 1.6-5.04 4.8-8.97 2.2-14 11.4-1.84 11.5-23.79 14.5-33 3-9.29 5.3-21.2 4.3-30.98-0.4-3.26-2.6-5.85-2.9-9.06-0.9-9.35 1.2-19.37 0-28.96-1.2-9.04-5.6-20.92-8.5-29.87-2.8-9.06-10.1-15.96-11.4-26.13h-4c-1.8-14.05-20.3-21.51-20-35l-12-19c-8-0.2-9.9-9.15-14.3-13.94-3.7-3.89-13.8-9.46-18.7-11.06v-5l-12-3 1-3-15-4v-3c-26 0.27-51.3-9.02-78-5.82-9.03 1.09-17.92 4.28-27 5.27-8.11 0.87-14.94 0.25-23 2.92-13.87 4.59-29.28 13.59-44 13.63z" fill="#f9fff3"></path><path d="m1025 280v1l12 2v-1l-12-2m-933 3l-2 3h-4v1c3.061-0.1 6.867-0.14 6-4m945 1v1h15v3l15 4-1 3 9 3-5-9h-5v-4l-28-1z" fill="#fac4a4"></path><path d="m1230 283l1 13 8 2v-6c-4-1.16-5.4-2.83-5-7l-4-2z" fill="#f96c80"></path><path d="m686 286l-2 2v1c2.25-0.47 3.12-0.86 2-3m233 2v1l6-2-6 1m-836-1l-2 4 5-3-3-1m805 1l-4 4v5c-5.31 1.66-17.29 7.52-19 13l-10 1-4 2-6 10h1c6.44-5.85 21.3-8.41 24-17 4.06-0.29 8.74-0.69 10-5l33-9v-1l-15-2-5 2-5-3m-808 3c-4.955 6.4-9.795 12.84-11 21h1l2-8c5.22-1.13 10.011-7.68 8-13m600 0l-5 7h5l2-7h-2m559 4v8l9 13-2-12-5-9h-2z" fill="#fac4a4"></path><path d="m674 298l-5 3-6 7v1c5.82 0 10.31 0.05 9-7l5 1-3-5z" fill="#f96c80"></path><path d="m1078 302v1l6 4c-0.6-3.91-2.1-4.7-6-5m-412 5l3-1-3 1z" fill="#fac4a4"></path><path d="m1240 306v4h-3l4 12c8.7-4.09 6.2 17.09 6 22l7-2 2 3 1 12c5-5.22-1.6-12.79-2-19h-5l2-2v-6c-4.5-2.89-4-9.1-4-14l-8-10m-918 2v5h-16c-1.78 2.22-2.86 1.72-5 0h-2l-2 6h-16c6.47 3.78 15.36-0.39 22.02-1.66 14.18-2.71 31.62 1.3 44.98-4.34v-1l-19 1c-1.18-3.88-3.05-4.7-7-5z" fill="#f96c80"></path><path d="m1085 308v1l5 2c1.2-3.28-2.5-2.96-5-3m-424 2v3h1l1-3h-2m-413 18v1l48-6v-1h-2v-1l31-4 19 0.04 58 1.96v4c8.7 0 19.21-0.32 26 6l43 11v4l19.87 4.78 13.13 6.22v-2h-6c-3.15-9.52-24.17-14.3-33-15v-1l2-2c-16.88-1.47-30.81-10.66-47.17-13.74-15.47-2.91-31.03-2.54-46.83-4.39-7.86-0.92-16.07-3.32-24-3.48-17.96-0.34-36.47 4.54-54.09 6.18-14.81 1.38-33.53 1.42-46.91 8.43m847-15v1c6.1 3.72 6.9 14.37 16 14l-8-5c-0.5-5.42-2.3-9.17-8-10m-1028 1l-4 9 6-9h-2z" fill="#fac4a4"></path><path d="m387 317v1h14l-14-1z" fill="#b9aa8c"></path><path d="m1248 319c0 3.93-0.5 10.04 4 11l-2 8h5l10 50h3l1 6h1l-10-59-4 1 1-6-3 1-6-12m-406 2l-8 7-9 3-3 9 23-16-1-3h-2m-781 6c-11.869 12.38-8.007 34.64-8 50 0.002 4.31-2.184 14.18 1 17l-2 11h2c0.016-4.56 1.793-8.62 1.907-13.04 0.352-13.76-2.639-26.69 0.638-40.25 1.523-6.3-0.984-11.91 4.455-16.71v-8m177 4l5 3 4-4-9 1m-12 4l1 3-4 3 13-8-10 2m889-2l8 14c-1 5.48 13.7 26.9 17 17h-1l-3 2-4-3-3-18h-8l-1-6c8-1.72-1.5-5.7-5-6z" fill="#fac4a4"></path><path d="m220 339l-1 2v1l4-3h-3z" fill="#b9aa8c"></path><path d="m213 342v1l6-1h-6z" fill="#f96c80"></path><path d="m209 347l10-5-10 5z" fill="#fac4a4"></path><path d="m489 345v1l9 7h6v3l5-3-7-1c-0.73-3.4-2.81-2.99-6-3l1-3-8-1z" fill="#f96c80"></path><path d="m203 353h1l3-4-4 4m602-2v4h1l2-4h-3z" fill="#fac4a4"></path><path d="m55 353c0.001 6.02-3.242 20.6 2 24v-24h-2z" fill="#f96c80"></path><path d="m196 358l7-4c-3.54-1.22-5.46 0.93-7 4m308-2v1l13 5c-2.84-5.8-6.96-6.63-13-6z" fill="#fac4a4"></path><path d="m193 357v5l3-5h-3z" fill="#f96c80"></path><path d="m799 359l-2 4 2-4m-607 3c-2.83 12.35-5.6 24.31-4 37h1l6-37h-3z" fill="#fac4a4"></path><path d="m522 362l-1 3 6 2-5-5z" fill="#b9aa8c"></path><path d="m518 363v1l10 4v4l17 8c-4.61-9.48-17.34-14.61-27-17m621 5l4 14h4l3 10 3-2-1-9v-1c-5-1.19-9.1-4.33-5-9l-8-3z" fill="#fac4a4"></path><path d="m55 380c0.11 40.06 3.291 78.35 9.742 118 1.4 8.6 1.793 16.94 2.343 25.44 0.34 5.26-1.199 10.63 4.915 12.56-0.167 8.11-3.962 19.41 4 25l-1 7 2-1 6 24-2 6 2-1 6 31-2-2h-1l5 4v10c5.912 1.55 6.562 6.5 7 12 7.51 4.14 1.981 15.94 12 19l-1 3 5 1v8l8 15-2 5 5 1 1 9 6-1-2 7 6 9-1 4h4c0.51 9.46 8.27 26.86 18 29v-8l-7-5h3l-1-12-7-1 2-3-4-3 4 1-3-9 3-4-4 2 2-16-14 1-3-3 2-4h-5v-1l4-3-4 1c1.02-5.48 5.08-19.58 0-23l-1 6h-4l3-5c-3.58-0.88-4.44-2.41-5-6l-11-3-1-5 9-5-1-3 2-2-3-3h-1l-5 1 1-4-3 1 1-6-6 1 1 3-9-9 5-5-3-2v-2c4.663-1.87 4.638-6.42 5-11l7 1 1-6h-4c1.46-2.07 6.27-8.27 2-9l1-3h-5l2-10c-14.272 2.82-17.077-18.58-2-16l-1-5 4-1v-6l-3 4h-5l-1-7v-2c2.956-2.69 0.715-6.01-1-9l3 2h1l-1-4-8 1c-2.714-2.37-3.632 1.65-4 4l-2-3-7 1 3-8h1l2 3h1l5-7v-1h-4c4.478-4.85 6.703-8.06 6-15h5l-1-4 7-6v-2l-4-1 2-3h-4l3-4h-4l2-7h-1l-1 3h-1v-4l-6 1-1-6 7-2v-2l-8-2 3-1-1-3 6 1-5-4c2.938-7.82 2.885-9.55-5-13h6v-5l-2 1-4-10h4l3-13-5-5-2-1h-1v5h-2c0.563-4.58 1.32-8.27-3-11v3h-2c0.627-5.31-0.539-10.44 4-14v-4h-5l-1-6c-9.942-1.97-11.714-9.12-18-16z" fill="#f96c80"></path><path d="m545 380v6c4.36 1.16 22.59 17.71 24 11h-1l-1 2c-3.1-5.88-11.2-15.5-18-16v-3h-4m235 0l-7 12-6 7h-6v1l3 1-3 8 22-28-3-1z" fill="#fac4a4"></path><path d="m1267 388v13l-2-1v5h3c0 12.19 1.6 24.77-3 36l4-1-3 6v12h1l1-4h1c0 13.68 0.1 27.42-1.2 41-0.5 5.67 1.2 11.24-4.8 14l3 3-4 4 3 10h-4l-1 5h4l-1 6 1 1h2l5.2-35 2.4-17-2.8-13-0.4-52-3.4-33m-704 5c0.89 2.67 4.18 8.1 5 4h1l2 9 4 1-2-8-3-3-4-3h-3m-376 2c0 6.89-3.18 24.99 3 29l1-18-4-11z" fill="#f96c80"></path><path d="m570 402v5l19 13v-1l-2-4h-4c-0.25-7.58-5.38-8.14-12-9l-1-4m699 2l1 15h2l-3-15m-111 1l7 29h1c-1.2-9.18-2.4-21.55-8-29m-1105 5l1 9h-2l9.259 84 3.741 13h1c1.556-8.39-1.264-16.6-2.335-25-1.459-11.45-0.876-23.77-2.893-34.98-1.013-5.64-4.264-9.92-4.682-16.02-0.552-8.04 2.137-23.78-3.09-30m703 1l-2 7 6-7h-4m-567 1v9h1l-1-9z" fill="#fac4a4"></path><path d="m587 415c0.76 4.41 3.85 5.98 8 7v-1l-8-6z" fill="#f96c80"></path><path d="m753 419l1 4h1l1-4h-3m-538 1l-1 3 1-3z" fill="#fac4a4"></path><path d="m595 422v29h1c2.2-7.01 3.25-22.78-1-29z" fill="#f96c80"></path><path d="m190 423l-3 14h3l1 20h1c2.12-8.89 1.53-25.59-2-34m556 11l-2 7h1l1-7m525 1l1 48h1v-13h1l2 4-1.9-17-3.1-22m-675 15l-1 37-2-1v14c3.63 0.45 17.73 18.25 18 22h6c1.86 7.4 10.1 9.68 17 10l-1-3-3 1-8-3-2-7v-1l3-2-15-6-10.74-16.04 0.74-44.96h-2m-404 7l13.46 56 8.54 25h2c-0.09-11.14-5.62-18.55-9.4-28.13-1.44-3.64-0.13-7.92-0.86-11.7-1.3-6.67-4.47-13.51-6.32-20.13-2.27-8.18 0.88-15.69-7.42-21.04m541 2l-4 6v1c3.37-1.15 4.97-3.46 4-7m435 1l1.1 28-10.1 47h2l1-17h3c0.2-6.93 2.8-16.23 9-20l1-7-1-19-3 1-3-13m-440 6c-4.99 6.93-8.81 10.94-9 20h1l8-20m547 15c-5.9 13.87-6 34.99-6 50h1l4-39c4-0.85 2.5-8.03 1-11m-1236 2l-1 4h3l-2-4m678 4l-4 16c-4.05 1.34-3.95 4.06-4 8h1l9-24h-2z" fill="#fac4a4"></path><path d="m202 497l1 9h1l-2-9z" fill="#f96c80"></path><path d="m708 507l-3 8c3.07-1.78 4.56-4.67 3-8z" fill="#b9aa8c"></path><path d="m203 512l1 11 7 4-8-15z" fill="#f96c80"></path><path d="m693 523v4c6.63-0.94 8.16-5.42 12-10l-12 6m-628-4l6.536 45 10.464 47h1v-15l-2 1 2-6-6-24-2 1 1-7c-7.024-7.45-4.076-15.84-4-25l-7-17m614 12c-4.54-0.78-10.33 1.1-13 5l27-8c-3.36-1.94-13.13-1.04-14 3m588 0l-4.6 31-6.4 20h1c2.3-4.6 4.2-14.96 8-14l4-37h-2m-110 5l-6 4 2 3h1l3-7m-941 2l1 10h2l-3-10z" fill="#fac4a4"></path><path d="m1261 539l-1 11h-2l-1-10-9 3-3 5 5 25-4-1-4 14 4 3-11 3 3 4v1l-6-1 2 2v2l-4 10 1 10h-3l2 6-7-1-1 6-4 1 1 2-1.6 18.87-8.4 8.13-3-1c-1.3 5.11-0.2 13.52-2.9 17.74-3.8 5.86-17.4 8.71-14.1 17.26l-3-1v5h-1l-2-2c0.6 3.05 2 2.94 5 3v5l-5-1v3h-1l-2 1h-1l-1-3-4 2 1 8c-7.2 1.33-8 6.72-10 13h-1v-4c-4.2 0.69-6.3 2-8 6l7 2v1l-4 1v4c-3.7 1.3-5.2 5.21-2 8v1l-6 2-11 20-4-1-1 1 1 3h-2l-3 6v7l-9 1-3 15c-4 0.54-7.6 0.91-9 5l5 1v-4l6-1v-6c13-4.49 16.6-23.47 29-27l9.8-15.22 20.3-28.98 10.9-17.8 4 1c8.9-20.86 29.8-39.25 33-63h3l6-18c6.9-1.19 5.1-7.69 6.6-12.98 2.5-8.95 6.6-15.22 7.4-25.02 6.4-0.33 5.1-9.01 5.8-13.83 0.8-4.59 4.5-7.75 5.6-12.17 1.8-6.65 1.3-14.17 2.6-21l-4-3z" fill="#f96c80"></path><path d="m219 548l3 13h3c0.88 8.64 8.18 32.54 16 37l-17-47h-1v2h-1l-3-5m920 25l-6 17c-4.7 1.62-5.7 6.42-6 11-5.1 0.87-7.3 5.1-8 10 5-1.32 12.4-7.1 14-12l4-3h-5l15-7 1-6h-9v-10m116 13l-4 3-1 13h1c1.5-4.04 2.7-7.64 7-9l-3-7z" fill="#fac4a4"></path><path d="m238 597v4l4 5h1c-0.21-4.43-0.79-7.09-5-9z" fill="#f96c80"></path><path d="m243 601c0.57 8.45 5.95 23.26 14 27l-4-17-4 1v-6l-6-5m1002 8l-3 14 5-14h-2m-1161 10l5 8-2-8h-3z" fill="#fac4a4"></path><path d="m254 627l4 6 3 10-2-12-2 1-1-5h-2z" fill="#f96c80"></path><path d="m1237 627l-1 6h4l1-6h-4z" fill="#b9aa8c"></path><path d="m86 628l3 3 1 8h1v-10l-5-1m1020 0c-6 13.84-24.6 29.24-25 44h1l10-20c5.7-0.06 8.5-1.24 10-7h-2l2-4h2l2 5 4-2-3-3h4l-1-5h-4l2-8h-2m129 5l-4 12h-3c-2 8.94-8.4 25.82-15 32v1l10-7c0.2-7.66 6.4-20.71 12-26l4-12h-4m-975 3c1.22 6.56 1.63 13.75 9 16 0.62 14.14 12.08 26.52 17.63 39.09 2.74 6.21 4.05 14.59 11.37 16.91l7 18c13.83 7.22 14.02 34.11 29 39 1.06 11.61 10.83 21.65 17.45 30.59 4.35 5.88 3.5 11.12 12.55 11.41-1.72 8.05 1.74 13.9 10 14 0 5.42-0.6 9.65 5 12l-5-15h-4l-9-17c-4.63-2.27-6.92-6.03-8-11l-14-16-1-9h-3c-1-7.33-12.92-25.97-19-30l1-6c-6.75-3.5-11.84-13.59-12-21l-4 2v-4c-7.52-3.82-11.61-12.84-11-21l-13-18 2 1v-1l-3-8h-5l1-9-12-14m-169 3c1.582 6.9 6.539 11.87 9.11 18.13 2.41 5.85 1.65 15.34 8.89 17.87l11 36c8.87 6.5 11.07 17.57 15.66 27 2.15 4.4 3.28 9.57 8.34 11l5 6-10-24h-4l1-4-6-9 2-7-6 1-1-9-5-1 2-5-8-15v-8l-5-1 1-3-12-19c-0.242-5.61-0.623-11.06-7-12z" fill="#fac4a4"></path><path d="m271 662l4 7-4-7z" fill="#f96c80"></path><path d="m1078 672l-8 14c3.4-0.73 4.4-1.6 5-5h3l3-9h-3m133 6l-5 13c5-2.72 6.3-7.66 7-13h-2m-146 12l-17 25c5.2-2.39 9.4-7.52 11-13l5 2 3-14h-2m130 18l10-7-3-5c-4.8 2.7-5.4 7.03-7 12m-4-1l-15 24c8.3-2.89 16.4-15.03 19-23l-4-1m-144 8l-6 7v1l4-3c3-0.37 3.2-2.35 2-5z" fill="#fac4a4"></path><path d="m302 717l3 6-3-6m3 9v1l8 8c-1.46-4.08-3.78-7.66-8-9z" fill="#f96c80"></path><path d="m1033 727l1 4-9 7-5 6c0.9 3.05 3.1 5.24 4 1l6 1v-1l-4-3 5 1 2-16m142 4c-6.1 6.76-9.9 15.74-15.8 22.78-3.9 4.62-8.8 6.43-8.2 13.22l3-7c8.2-2.32 23.8-19.82 21-29z" fill="#fac4a4"></path><path d="m313 737l-3 3v1l11 9-8-13z" fill="#f96c80"></path><path d="m1019 746l-5 6-12 13v1c6.8-1.75 20-11.95 17-20m-867 13l-1 5 8 8v6c3.55 3.2 2.96 6.8 5.58 10.34 5.76 7.76 16.3 15.63 17.42 25.66l4-1 1 8c12.03 6.46 14.34 30.24 27 34l-4-14-11-7-2-11h-3l-10-18-7-8 2-2c-6.32 0.09-8.57-2.96-8-9h-4l-6-17h-4c1.1-5.08 0.52-8.81-5-10z" fill="#fac4a4"></path><path d="m330 766l3 1 2 5-1-7-4 1z" fill="#f96c80"></path><path d="m998 768l-4 9c5.07-0.81 6.9-4.25 8-9h-4m141 11l10-9c-4.5-0.95-8.6 5.18-10 9z" fill="#fac4a4"></path><path d="m336 772l1 7h2l-3-7m-168 9l-1 5h4l-1 7 7 4 4 5-8-17h-4l-1-4z" fill="#f96c80"></path><path d="m984 786l-1 4 3-4h-2m143 3v3h1l1-3h-2m-154 11h6v-3h4l-1-6-9 9z" fill="#fac4a4"></path><path d="m350 794l3 5-3-5z" fill="#f96c80"></path><path d="m1121 796v6h1l2-5-3-1m-151 5l-1 4h1l2-4h-2m145 2v4l6-4h-6m-148 2v2h2v-2h-2m-4 2l-4 10 8-10h-4m149 2l3-1-3 1m-4 0v5l4-1v-4h-4z" fill="#fac4a4"></path><path d="m1098 820v1l7-2 3-4c-4.3-1.34-6.9 2.52-10 5z" fill="#b9aa8c"></path><path d="m1105 815v3h1l1-3h-2m-163 20h1l16-18c-7.6 1.82-15.77 10.29-17 18m152-6l11-9c-5.3-1.28-9.6 4.43-11 9z" fill="#fac4a4"></path><path d="m368 821l5 7h1v-7h-6m-166 6l-3 7 7 4-4-11z" fill="#f96c80"></path><path d="m1088 834l5-2c-2.6-1.5-4.4-1.01-5 2m-154 4v4l7-6-7 2m-551 1l22.03 27.4 12.97 14.6-9-19-9-3c-0.28-8.56-8.34-19.9-17-20m696 3l3-3-3 3z" fill="#fac4a4"></path><path d="m924 852l-10 10 9-1v-4l8-5 6-11-13 11z" fill="#f96c80"></path><path d="m1076 851l3-9c-3.5 1.33-9.4 7.62-3 9z" fill="#fac4a4"></path><path d="m212 844l-2 4 11 15h1l-5-16-3-3h-2z" fill="#f96c80"></path><path d="m930 844l-2 5h1l3-5h-2z" fill="#fac4a4"></path><path d="m388 847l6 8-3-8h-3z" fill="#f96c80"></path><path d="m924 852l3-2-3 2m147-2l-2 1v1l2-2m-9 9l7-7-7 7m-156 12h1l7-4v-5c-4.57 1.59-7.04 4.24-8 9m-684-8l13 27 14 10c0.38 4.83 2.32 6.25 7 7v4h3l2 12 1 1 4-1 9 12h4c0.54 4.78 2.16 6.63 7 7 0.9 5.35 6.66 11.11 12 12l-1 4h8l-11-14h-4l-5-9c-3.49-1.06-4.43-2.42-5-6-10.37-2.16-12.08-19.49-21-21-0.78-4.64-3.48-6.34-8-7-0.62-3.99-1.86-5.82-6-6l-1-7c-7.85-3.66-8.12-15.5-17-16l-5-9z" fill="#fac4a4"></path><path d="m400 863l6 6c-0.66-3.82-2.46-4.72-6-6z" fill="#f96c80"></path><path d="m1054 864l-5 10c4.5-1.46 5.7-5.76 7-10h-2z" fill="#fac4a4"></path><path d="m226 867l1 5 4 1v-5l-5-1z" fill="#f96c80"></path><path d="m910 867l-7 4-1 4c4.74-0.32 10.12-2.38 8-8z" fill="#b9aa8c"></path><path d="m900 874l-1 4h-4v3c4.4-0.64 6.13-2.7 7-7h-2z" fill="#fac4a4"></path><path d="m1043 877l4-3-4 3z" fill="#f96c80"></path><path d="m1035 888h1l10-12c-5.8 1.99-10 5.78-11 12z" fill="#fac4a4"></path><path d="m1027 884l8 4 4-9-12 5z" fill="#f96c80"></path><path d="m418 881l6 8h1v-5l-7-3m473 0l-18 20c4.43-2.17 9.1-3.75 10-9l12-7v-4h-4z" fill="#fac4a4"></path><path d="m1030 888c-5.2 4.71-10.8 6.27-12 14h1c3.6-3.39 12.2-8.25 11-14z" fill="#f96c80"></path><path d="m1031 888l-6 10 9-7-3-3m-606 1l6 8c1.6-4.61-1.84-6.99-6-8z" fill="#fac4a4"></path><path d="m886 891l-3 1-8 7v1c5.62-0.24 14.1-1.42 11-9z" fill="#f96c80"></path><path d="m432 897l3 7h6v4h3v4h5c-3.03-5.56-6.4-9.78-13-10 0.55-3.56-0.51-4.42-4-5m579 14l13-12c-5.6 1.53-12 6.03-13 12m-145-3h1l4-4c-3.18-0.67-4.13 1.12-5 4z" fill="#fac4a4"></path><path d="m262 907l7 13-7-13z" fill="#f96c80"></path><path d="m861 914c-8.37 1.2-14.12 6.36-17 14l3-4c6.37-1.37 14.45-7.12 15-14l4-1c-3.91-1.28-4.73 1.55-5 5z" fill="#b9aa8c"></path><path d="m1007 915h1l3-4-4 4m-558-3l5 11c5.55 2.19 9.8 6.03 11 12l3 3h7l13 17 9 2c0.41 4.49 1.27 7.22 6 8 1.87 5.68 9.35 9.24 15 10l23 21c13.82 2.21 21.57 23 37 25v3h4v4c4.76 1.8 8.08 4.2 10 9h5c1.49 7 13.35 11.7 20 13l-2 2v1h8v5c6.38 0.4 14.11 6.4 17 12h4v1h-2v1l5 6 9-6-5 2c-3.42-6.9-9.63-10-17-11-0.19-5.8-2.46-6.9-8-7v-5l-13-4v-5c-6.68-0.1-15.92-7-19-13-4.33-0.9-5.66-2.6-6-7l-9-1v-5l-3 1-21-19h-8l1-3-5-1v-5l-3-3-13-6-9-11h-2c-3.61 1.38-5.6-1.87-7-5l-10.27-7.12-22.59-21.45-8.14-9.43-19-14z" fill="#fac4a4"></path><path d="m1005 912l-1 4 3-4h-2z" fill="#f96c80"></path><path d="m450 917l4 3-4-3z" fill="#b9aa8c"></path><path d="m995 919v4c-5.28 0.42-5.88 3.1-6 8h1l1-6 12-8-8 2z" fill="#f96c80"></path><path d="m997 923l6-3-6 3m-152-2l-2 7-4 3 4 1 2-11m146 4v5l5-6-5 1m-153 6l-10 10c3.49-1.83 10.12-5.73 10-10z" fill="#fac4a4"></path><path d="m986 933l3-1-3 1z" fill="#f96c80"></path><path d="m983 933v5l-11 7v4c-4.69 0.95-7.89 3.72-10 8h4l7-11c5.49-0.85 15.07-8.39 16-14l-6 1z" fill="#fac4a4"></path><path d="m982 934l-10 8-2-1-1 1 1 3h-2l1 3c-5.49 0.88-8.65 4.05-11 9l14-8v-4l11-7-1-4z" fill="#f96c80"></path><path d="m812 954l14-9c-4.41-1.85-11.85 5.21-14 9m-11 9h1l6-6-7 6m-498-4c0.83 3.8 2.17 4.7 6 5l-1 4 4-1-2 7c5.56 1.85 16.81 9.01 18 15l14 6v4c4.86 1.3 7.95 5.1 9 10l27 20c1.22 3.6 3.42 4.3 7 5l2 7 10 1-1 5c7.42 1.6 10.04 4.6 11 12h7c-1.21-9.1-10.26-16.2-19-18v-4h-4c-1.9-6.7-7.14-10.8-14-11l1-4-3-4h-4l-2-8c-12.51-2.6-18.32-10.71-27-19l-4 1-1-6-3 1c-1.33-6.19-6.34-6.94-12-7l-7-18-7-4-5 1z" fill="#fac4a4"></path><path d="m955 961l-1 6h2l1-6h-2z" fill="#b9aa8c"></path><path d="m798 963l-5 6c3.89-0.99 6.68-2.04 8-6h-3z" fill="#fac4a4"></path><path d="m964 970h8v-6c-4.45 0.34-6.73 1.62-8 6z" fill="#b9aa8c"></path><path d="m949 966v3l5-1-5-2z" fill="#f96c80"></path><path d="m954 967l-13 7v4c3.42-1.08 13.89-7.41 13-11m-164 2v3l2-3h-2z" fill="#fac4a4"></path><path d="m317 970l5 10h6v-1l-11-9m625 4l6-2-6 2z" fill="#f96c80"></path><path d="m784 978h1l4-6-5 6z" fill="#fac4a4"></path><path d="m785 975l-7 7 10-6-3-1z" fill="#b9aa8c"></path><path d="m598 976v2h2v-2h-2m339 3l-6 8c3.17-1.62 6.84-4.13 6-8z" fill="#fac4a4"></path><path d="m921 987v1l2 2-9 9c7.93-1.35 16.32-11.17 20-18l-13 6m-588-4l1 4 3-1-4-3z" fill="#f96c80"></path><path d="m772 984v2h2v-2h-2m-11 10c4.5-0.54 8.79-4.1 11-8-5.2 0.48-9.41 2.82-11 8z" fill="#fac4a4"></path><path d="m337 988l1 4 4-1-1-4-4 1z" fill="#f96c80"></path><path d="m928 988v3l2-3h-2z" fill="#fac4a4"></path><path d="m47 990v2h2v-2h-2z" fill="#b9aa8c"></path><path d="m542 996l7 6-7-6z" fill="#f96c80"></path><path d="m758 997l-6 6c3.32-0.8 6.84-2.1 6-6m151 11h1l8-8c-5.33-2.05-7.95 3.5-9 8z" fill="#fac4a4"></path><path d="m902 1006c0 3-21.46 14.6-25 15l-1 8-9 1 1 4c-5.03 0.1-14.84 10.4-18 5h-1v5h-4l-1 7-12 6-5 9c-11.48 0.9-12.83 8.3-19.67 15.7-4.1 4.5-7.73 5.7-8.33 12.3 4.56-0.3 7.59-1.4 9-6h4v-5h1l1 2h1c6.56-5.3 15.3-15.7 24-16l3-6 23-16 13-14-1-3 19-9 13-16-7 1z" fill="#f96c80"></path><path d="m743 1006l-1 4 7-4h-6m161 6l4-3-4 3m-173 7h4l6-5 1-4c-5.28 1.2-8.69 4.2-11 9m169 3l4-9c-5.84-1.8-10.73 6.3-4 9z" fill="#fac4a4"></path><path d="m730 1019l-8 5v1c4.73-0.3 8.49-1.9 11-6h-3z" fill="#f96c80"></path><path d="m888 1024l7-2c-3.12-1.3-5.17-0.8-7 2m-172 5l6-4-6 4m170-4v3h2v-3h-2m-2 3l-7 2 1 3c-5 2.2-12.18 8.4-13 14-5.45 0.7-10.06 2.6-12 8 9.6-3.9 32.17-16.1 33-27h-2m-177 4l-7 9 8-2 8-6v-4l-9 3m-22 17v3l-10-1-1 8c7.96-2.4 20.55-9.8 25-17l-14 7z" fill="#fac4a4"></path><path d="m604 1044v1l3 6 12 3v-1h-4v-1l2-2-13-6m-188 10l-2 5 6 2v5l20 9-1 4 2 2 6 2c-3.3-9.3-16.21-17.9-26-19l-5-10m210 4l1 6 17 7v-1h-4c-1.5-4.9-8.99-10.9-14-12z" fill="#f96c80"></path><path d="m848 1061l-6 4 6-4m-189 7v4h1v-3l4-2-5 1m164 12l16-9v-2c-7.28 0.1-12.64 4.6-16 11m-391-7c2.95 4.5 5.35 8.6 11 9 1.52 4.9 5.86 8.2 11 7-2.37-4.6-8.11-6.8-13-8l1-2h-3l1-4-8-2m380 10v4l3-1-3-3m-810 2l1 9h1v-9h-2m806 3l-4 5v1c4.08-0.6 6.19-2.3 8-6h-4z" fill="#fac4a4"></path><path d="m454 1089c0.79 4.5 3.65 5.6 8 5l-8-5z" fill="#f96c80"></path><path d="m454 1093l-1 2v1l4 7 11 3c-2.36-5.7-7.98-11.5-14-13m340 9l-4 2c6.32-1.4 9.18-3.8 11-10-4.16 1.6-6.29 3.5-7 8z" fill="#fac4a4"></path><path d="m792 1095l-1 7h3l4-6-6-1z" fill="#f96c80"></path><path d="m461 1098l9 12 5-3c-3.28-1.7-4.14-3.3-4-7l-10-2m-182.67 1.7l0.34 0.6-0.34-0.6z" fill="#b9aa8c"></path><path d="m783 1110c5.17 5.5 2.28 19.9-6 21v6l-4 2 14-10 4-20v-1l-1-4c-4.01 0.6-5.67 2.2-7 6m-309 0v1l7 2c0.11 9.4 13.48 13.9 22 14v1h-3v3l12 4c0.48 4.2 1.65 6 6 5 1.64 4.9 9.02 8.6 14 9v1l-5 1v1l4 6h2v-5h2c0.46 2.7 2.09 6.6 5 4h1l-5 4v1c5.54 0.6 20.04 3.1 23.06 8.4 2.17 3.8-0.53 8.6 2.94 11.6l-1-3 12-3c-0.5 4.8-0.76 7.8 4 10l19 6 1 4v1l-2 2 4-2-1 7 20-2-17-2 1-5c-12.76-10.8-20.62-23.9-39-26l1-4c-3.66-0.5-8.6-1-11.7-3.1-3-2.1-2.06-6.6-4.88-8.6-7.88-5.5-27.74-8.1-30.42-18.3h-4l1-2-14-7v-3h-4c-1.21-7.3-15.2-12.9-22-13m-403 5l4 5v-4l-4-1m148 12v4h1l-1-4m158 2v4h1l-1-4m385 13l10-2-10 2z" fill="#fac4a4"></path><path d="m519 1140v1l16 6c-3.28-5.8-9.88-6.5-16-7z" fill="#f96c80"></path><path d="m732 1147l-6 6 15-2v-1h-2v-1l4 2h8l6-8c-8.75 1.8-15.95 6.4-25 4z" fill="#fac4a4"></path><path d="m736 1147v1h9l-9-1z" fill="#f96c80"></path><path d="m143 1149v4l3-4h-3z" fill="#fac4a4"></path><path d="m719 1155l8-3c-3.7-1.5-6.69-0.9-8 3m-170-1c0.75 9 6.77 10.3 15 11l-1 4 14 4 1-3v-1l-12-2-9.73-5.3-7.27-7.7z" fill="#f96c80"></path><path d="m705 1168l-17 4-2 6 3-5 18-2c2.5-7.6 5.4-5.6 12-4l-3-4v-2l4-6c-7.04 1.5-13.5 5.6-15 13m-588 0v2h2v-2h-2m42 8l2 7-1 3 2-10h-3m524 2l-12 21v1c5.53-1.6 7.74-6.7 9-12l7-2-1-8h-3z" fill="#fac4a4"></path><path d="m550.33 1181.7l0.34 0.6-0.34-0.6z" fill="#b9aa8c"></path><path d="m679 1181l-1 5-4-1-3 14 11-18h-3m-84 5l7 9-1 5 20 3v-4l-22-9-4-4z" fill="#f96c80"></path><path d="m488 1198l-2 4-2-2h-1l4 5 3-3v-4h-2z" fill="#fac4a4"></path><path d="m658 1204v1c6.39 0 9.86 0.1 13-6l-13 5z" fill="#f96c80"></path><path d="m620 1201v3l4 1c0.22 4.2 3.32 4 7 4v1l-2 1 11-1v-1l-12-1-2-7h-6z" fill="#fac4a4"></path><path d="m651 1206v1l7-2-7 1z" fill="#f96c80"></path><path d="m509 1209l3-3-3 3z" fill="#b9aa8c"></path><path d="m512 1211l6-3c-3.12-1-4.38 0.4-6 3z" fill="#fac4a4"></path><path d="m161.67 1214.3l0.66 0.4-0.66-0.4z" fill="#b9aa8c"></path><path d="m97 1220l-3 10 4 1 1-11h-2m779 16v1l4-1h-4m-385 1v2h2v-2h-2z" fill="#fac4a4"></path><path d="m235 1241v2h2v-2h-2z" fill="#b9aa8c"></path><path d="m127 1255v2h2v-2h-2m608 13v4l-6-3-3 8h-6l-5 4-5 12h8v1h-4v6l15-3h5l1-7-1-8 3 3h1l-3-17z" fill="#fac4a4"></path><path d="m1039 1269v3h1l-1-3m-308 10v3h1l-1-3z" fill="#b9aa8c"></path><path d="m950 1285l6-2c-3.06-1.1-5.24-1.6-6 2m-499 0v4h1l-1-4z" fill="#fac4a4"></path><path d="m829.67 1286.3l0.66 0.4-0.66-0.4m-94.67 4.7v4h1l-1-4z" fill="#b9aa8c"></path><path d="m49 1296v5h2v-5h-2z" fill="#fac4a4"></path><path d="m514 1308l4 2 6 14h4l-2-13-12-3z" fill="#b9aa8c"></path><path d="m511 1309l-3 7c-3.95 1.3-4.24 4.2-5 8h21l-6-14-7-1z" fill="#12453e"></path><path d="m507 1310l-1 6 5-5-4-1z" fill="#b9aa8c"></path><path d="m505 1311l-1 6h1l2-6h-2z" fill="#fac4a4"></path><path d="m457 1314l3-2-3 2z" fill="#b9aa8c"></path><path d="m376 1314l-4 5v1h4l3 4 2-10h-5m87 0v2h5l-5-2m-240 5v5l9-1c-2.03-4.7-4.22-5.2-9-4m280-2l-2 3c2.25-0.5 3.12-0.9 2-3z" fill="#fac4a4"></path><path d="m501 1320v4l3-4h-3z" fill="#b9aa8c"></path><metadata></metadata></svg> 